<?xml version="1.0" standalone="no"?>
<!DOCTYPE svg PUBLIC "-//W3C//DTD SVG 20010904//EN"
 "http://www.w3.org/TR/2001/REC-SVG-20010904/DTD/svg10.dtd">
<svg version="1.0" xmlns="http://www.w3.org/2000/svg"
 width="256.000000pt" height="256.000000pt" viewBox="0 0 256.000000 256.000000"
 preserveAspectRatio="xMidYMid meet">

<g transform="translate(0.000000,256.000000) scale(0.100000,-0.100000)"
fill="#000000" stroke="none">
<path d="M361 2544 c-170 -46 -301 -178 -346 -349 -23 -89 -23 -1741 0 -1830
46 -174 176 -304 350 -350 89 -23 1741 -23 1830 0 174 46 304 176 350 350 23
89 23 1741 0 1830 -46 174 -176 304 -350 350 -86 22 -1751 21 -1834 -1z m530
-975 c19 -7 38 -15 43 -19 8 -8 -9 -77 -23 -93 -4 -4 -35 0 -70 8 -95 25 -151
4 -151 -55 0 -34 18 -48 100 -80 108 -42 160 -101 160 -182 0 -84 -38 -144
-115 -179 -67 -31 -218 -23 -270 15 -17 12 -17 17 -5 60 14 51 14 51 61 32 89
-36 186 -24 203 26 15 42 -13 73 -107 117 -128 59 -175 130 -148 222 27 89
104 139 217 139 39 0 86 -5 105 -11z m493 -1 c60 -18 148 -108 170 -175 18
-53 23 -166 10 -219 -12 -50 -44 -104 -85 -143 l-40 -39 63 -14 63 -14 -2 -43
c-1 -24 -7 -49 -13 -55 -7 -7 -53 4 -153 36 -78 26 -167 54 -198 62 -106 30
-182 123 -198 241 -21 157 46 299 169 354 52 24 150 28 214 9z m394 -245 l2
-253 126 0 125 0 -3 -57 -3 -58 -160 -3 c-88 -1 -170 0 -182 3 l-23 5 0 304
c0 234 3 306 13 310 6 3 32 4 57 3 l45 -2 3 -252z"/>
<path d="M1234 1466 c-96 -43 -131 -203 -72 -324 16 -34 31 -49 66 -64 61 -27
106 -18 154 32 82 87 75 277 -13 342 -34 25 -96 32 -135 14z"/>
</g>
</svg>
